<svg width="142" height="144" viewBox="0 0 142 144" fill="none" xmlns="http://www.w3.org/2000/svg">
<path d="M69.7412 0.0107824C30.5354 0.689952 -0.683984 33.2977 0.0115135 72.8417C0.707005 112.385 33.054 143.892 72.2599 143.213C111.466 142.534 142.685 109.926 141.99 70.3822C141.294 30.8382 108.947 -0.668387 69.7412 0.0107824ZM97.0504 80.7103L80.6339 80.9947L80.9251 97.5526C81.0179 102.825 76.8547 107.173 71.6279 107.263C66.4007 107.354 62.0876 103.152 61.9948 97.8806L61.7036 81.3226L45.2878 81.607C40.0606 81.6975 35.7471 77.4964 35.6544 72.2242C35.5617 66.9517 39.7248 62.6038 44.952 62.5132L61.3678 62.2289L61.0766 45.6715C60.9839 40.399 65.147 36.0511 70.3738 35.9606C75.601 35.87 79.9142 40.0714 80.0069 45.3436L80.2981 61.9009L96.7145 61.6165C101.941 61.526 106.255 65.7271 106.347 70.9996C106.44 76.2718 102.277 80.6198 97.0504 80.7103Z" fill="#472A12" fill-opacity="0.35"/>
</svg>
