<svg width="23" height="19" viewBox="0 0 23 19" fill="none" xmlns="http://www.w3.org/2000/svg">
<path d="M16.216 1.79012C17.5314 1.83238 18.7729 2.33831 19.67 3.19766C20.5671 4.05701 21.0471 5.20012 21.0054 6.37789C21.0537 9.12687 18.4318 10.8614 15.9228 12.9305C13.4465 14.9812 12.113 16.1017 11.6796 16.3625C11.1978 16.0943 9.50819 14.7683 7.31816 13.0796C4.72679 11.0907 2.05621 9.4318 2.00829 6.70698C1.92517 5.53138 2.36467 4.37234 3.23103 3.48243C4.09738 2.59253 5.32036 2.04391 6.63344 1.95612C7.36113 1.92376 8.08507 2.06093 8.73448 2.35421C9.38389 2.6475 9.93655 3.08687 10.3384 3.62937C11.1968 4.66626 11.346 5.19001 11.486 5.18759C11.626 5.18516 11.7547 4.6566 12.568 3.58806C12.9483 3.02947 13.4854 2.56944 14.1255 2.25394C14.7657 1.93844 15.4865 1.77851 16.216 1.79012ZM16.1845 0.000418436C15.2761 -0.00986945 14.3761 0.163403 13.5515 0.507333C12.7268 0.851263 11.9989 1.35699 11.4217 1.98685C10.8233 1.37916 10.0795 0.900067 9.24528 0.584974C8.41104 0.269882 7.50769 0.126841 6.60197 0.166419C4.75826 0.262942 3.02962 1.00883 1.79406 2.24099C0.558496 3.47315 -0.0834511 5.09131 0.00858978 6.74163C0.0654059 9.97203 2.64991 11.9117 5.14826 13.7867C5.43509 14.0019 5.72495 14.2189 6.01289 14.4404L7.05418 15.2441C8.19082 16.1784 9.38072 17.0595 10.6191 17.8838C10.9462 18.0658 11.3254 18.1591 11.711 18.1524C12.0967 18.1457 12.4724 18.0393 12.7928 17.8461C14.04 16.9529 15.2338 16.0015 16.3692 14.9959L17.2781 14.2426C17.567 14.0048 17.8599 13.7679 18.1508 13.5346C20.4526 11.6821 23.0621 9.58261 23.0051 6.34325C23.039 4.69075 22.3406 3.09581 21.0624 1.9072C19.7843 0.71859 18.0305 0.0330248 16.1845 0.000418436Z" fill="#342315"/>
</svg>
